# xmcd CD database file
#
# Track frame offsets:
#	150
#	15272
#	31940
#	63285
#	83972
#	99865
#	121295
#	136920
#	155782
#	173240
#	189947
#	207310
#	221807
#	237770
#	256225
#	274677
#	288280
#	307137
#	322435
#	323602
#	324722
#	326182
#	327510
#	328710
#	329695
#	331120
#	332730
#	333962
#	335567
#	336897
#	337922
#	339167
#	340445
#	341547
#	342535
#	343485
#
# Disc length: 4591 seconds
#
# Revision: 0
# Processed by: cddbd v1.5.2PL0 Copyright (c) Steve Scherf et al.
# Submitted via: CDex 1.70beta2
#
DISCID=3d11ed24
DTITLE=Jones Country - Jones Country Recurrent CHC-1197
DYEAR=0000
DGENRE=Country
TTITLE0=Trace Adkins/Chrome
TTITLE1=Gary Allan/Man To Man
TTITLE2=Garth Brooks/Friends In Low Places (live) [lyrics]
TTITLE3=Garth Brooks/Thunder Rolls (live)
TTITLE4=Brooks and Dunn/Every River [single remix]
TTITLE5=Kenny Chesney/A Lot Of Things Different
TTITLE6=Terri Clark/I Just Wanna Be Mad
TTITLE7=Billy Ray Cyrus/Some Gave All
TTITLE8=Dixie Chicks/Landslide
TTITLE9=Jennifer Hanson/Beautiful Goodbye
TTITLE10=Faith Hill/Cry
TTITLE11=Toby Keith/Who's Your Daddy? [single version]
TTITLE12=Aaron Lines/You Can't Hide Beautiful
TTITLE13=Tim McGraw/Red Rag Top
TTITLE14=Brad Paisley/I Wish You'd Stay [single edit #1]
TTITLE15=George Strait/She'll Leave You With A Smile
TTITLE16=Shania Twain/I'm Gonna Getcha Good!
TTITLE17=Mark Wills/19 Somethin'
TTITLE18=CHC1197/Track 19
TTITLE19=CHC1197/Track 20
TTITLE20=CHC1197/Track 21
TTITLE21=CHC1197/Track 22
TTITLE22=CHC1197/Track 23
TTITLE23=CHC1197/Track 24
TTITLE24=CHC1197/Track 25
TTITLE25=CHC1197/Track 26
TTITLE26=CHC1197/Track 27
TTITLE27=CHC1197/Track 28
TTITLE28=CHC1197/Track 29
TTITLE29=CHC1197/Track 30
TTITLE30=CHC1197/Track 31
TTITLE31=CHC1197/Track 32
TTITLE32=CHC1197/Track 33
TTITLE33=CHC1197/Track 34
TTITLE34=CHC1197/Track 35
TTITLE35=CHC1197/Track 36
EXTD=YEAR: 0000
EXTT0=
EXTT1=
EXTT2=
EXTT3=
EXTT4=
EXTT5=
EXTT6=
EXTT7=
EXTT8=
EXTT9=
EXTT10=
EXTT11=
EXTT12=
EXTT13=
EXTT14=
EXTT15=
EXTT16=
EXTT17=
EXTT18=
EXTT19=
EXTT20=
EXTT21=
EXTT22=
EXTT23=
EXTT24=
EXTT25=
EXTT26=
EXTT27=
EXTT28=
EXTT29=
EXTT30=
EXTT31=
EXTT32=
EXTT33=
EXTT34=
EXTT35=
PLAYORDER=
